<?xml version="1.0" encoding="UTF-8"?>
<svg xmlns="http://www.w3.org/2000/svg" viewBox="0 0 1200 750" preserveAspectRatio="xMidYMid slice">
  <rect width="1200" height="750" fill="#1a1814"/>
  <!-- 终端窗口 -->
  <rect x="100" y="80" width="1000" height="590" rx="10" fill="#0e0c08"/>
  <rect x="100" y="80" width="1000" height="40" rx="10" fill="#2a2520"/>
  <circle cx="128" cy="100" r="7" fill="#e57d6a"/>
  <circle cx="152" cy="100" r="7" fill="#e3c46a"/>
  <circle cx="176" cy="100" r="7" fill="#7fb27a"/>
  <text x="540" y="106" font-family="Menlo, monospace" font-size="12" fill="#a8a08a" letter-spacing="0.05em">— hangyu — claude — 100×30</text>
  <!-- 终端文字 -->
  <g font-family="Menlo, monospace" font-size="13.5">
    <text x="130" y="160" fill="#7fb27a">hangyu@MBP</text>
    <text x="248" y="160" fill="#9fb6c8">~/Documents/Web Creating</text>
    <text x="468" y="160" fill="#c9c0a9">$ </text>
    <text x="488" y="160" fill="#fdf9ef">claude</text>
    <text x="130" y="200" fill="#c9c0a9">▌</text>
    <text x="130" y="240" fill="#e3c46a">&gt; 帮我把首页的影像预览改成真实的南极奥德赛卡片</text>
    <text x="130" y="280" fill="#a8a08a">● Read(index.html)</text>
    <text x="130" y="305" fill="#a8a08a">  └─ 6,210 bytes · 116 lines</text>
    <text x="130" y="345" fill="#a8a08a">● Edit(index.html)</text>
    <text x="130" y="370" fill="#a8a08a">  ├─ 占位卡片 → 真实条目</text>
    <text x="130" y="395" fill="#a8a08a">  └─ 完成 ✓</text>
    <text x="130" y="435" fill="#7fb27a">已替换两张「待补充」卡片为：</text>
    <text x="150" y="460" fill="#fdf9ef">  · 我的南极奥德赛 · 2024</text>
    <text x="150" y="485" fill="#fdf9ef">  · 影片整理中（占位）</text>
    <text x="130" y="525" fill="#7fb27a">hangyu@MBP</text>
    <text x="248" y="525" fill="#9fb6c8">~/Documents/Web Creating</text>
    <text x="468" y="525" fill="#c9c0a9">$ </text>
    <text x="488" y="525" fill="#fdf9ef">_</text>
    <rect x="500" y="513" width="9" height="16" fill="#fdf9ef" opacity="0.8"/>
  </g>
  <!-- 底部标题 -->
  <g font-family="Georgia, 'Songti SC', serif">
    <text x="100" y="720" font-size="20" font-style="italic" fill="#e3c46a" letter-spacing="0.15em">Cowork / Claude Code — 在硬盘上和 AI 一起改文件</text>
  </g>
</svg>
